<svg xmlns="http://www.w3.org/2000/svg" viewBox="0 0 24 24" fill="currentColor">
  <path d="M12 0C5.37 0 0 5.37 0 12c0 5.3 3.438 9.8 8.205 11.385.6.113.82-.26.82-.577 0-.285-.01-1.04-.015-2.04-3.338.725-4.042-1.61-4.042-1.61-.546-1.387-1.333-1.756-1.333-1.756-1.09-.745.083-.73.083-.73 1.205.085 1.84 1.238 1.84 1.238 1.07 1.835 2.807 1.305 3.492.997.108-.775.418-1.305.76-1.605-2.665-.305-5.466-1.332-5.466-5.93 0-1.31.47-2.382 1.235-3.22-.125-.304-.535-1.526.115-3.176 0 0 1.005-.322 3.3 1.23.96-.267 1.98-.4 3-.405 1.02.005 2.04.138 3 .405 2.28-1.552 3.285-1.23 3.285-1.23.655 1.65.245 2.872.12 3.176.77.838 1.235 1.91 1.235 3.22 0 4.61-2.805 5.62-5.475 5.92.43.37.81 1.1.81 2.22 0 1.605-.015 2.9-.015 3.295 0 .315.21.69.825.575C20.565 21.795 24 17.295 24 12c0-6.63-5.37-12-12-12z"/>
</svg>
