<svg xmlns="http://www.w3.org/2000/svg" viewBox="0 0 24 24" fill="currentColor">
  <path d="M20.447 20.452H17.4v-5.569c0-1.328-.025-3.036-1.852-3.036-1.853 0-2.136 1.445-2.136 2.938v5.667H10.32V9h2.92v1.561h.042c.407-.773 1.402-1.588 2.885-1.588 3.084 0 3.652 2.031 3.652 4.67v6.809zM5.337 7.433a1.7 1.7 0 110-3.401 1.7 1.7 0 010 3.401zM6.952 20.452H3.723V9h3.229v11.452zM22.225 0H1.771C.792 0 0 .771 0 1.723v20.554C0 23.229.792 24 1.771 24h20.451C23.205 24 24 23.229 24 22.277V1.723C24 .771 23.205 0 22.225 0z"/>
</svg>
